HIERARCHY
ROOT Hips
{
	OFFSET 0.000000 0.000000 0.000000
	CHANNELS 6 Xposition Yposition Zposition Zrotation Yrotation Xrotation 
	JOINT LeftUpLeg_virtual
	{
		OFFSET 0.000000 0.000000 0.000000
		CHANNELS 3 Zrotation Yrotation Xrotation
		JOINT LeftUpLeg
		{
			OFFSET 10.205400 -3.823500 0.155100
			CHANNELS 3 Zrotation Yrotation Xrotation
			JOINT LeftLeg
			{
				OFFSET 0.708757 -12.982077 0.567790
				CHANNELS 3 Zrotation Yrotation Xrotation
				JOINT LeftFoot
				{
					OFFSET -0.708756 -10.717838 -2.184338
					CHANNELS 3 Zrotation Yrotation Xrotation
					JOINT LeftToeBase
					{
						OFFSET 0.108149 -7.191104 7.560241
						CHANNELS 3 Zrotation Yrotation Xrotation
						End Site
						{
							OFFSET 0.000000 0.000000 0.000000
						}
					}
				}
			}
		}
	}
	JOINT RightUpLeg_virtual
	{
		OFFSET 0.000000 0.000000 0.000000
		CHANNELS 3 Zrotation Yrotation Xrotation
		JOINT RightUpLeg
		{
			OFFSET -10.205400 -3.823500 0.005500
			CHANNELS 3 Zrotation Yrotation Xrotation
			JOINT RightLeg
			{
				OFFSET -0.708756 -12.982134 0.610632
				CHANNELS 3 Zrotation Yrotation Xrotation
				JOINT RightFoot
				{
					OFFSET 0.708754 -10.717769 -1.945823
					CHANNELS 3 Zrotation Yrotation Xrotation
					JOINT RightToeBase
					{
						OFFSET -0.108140 -7.191069 7.372968
						CHANNELS 3 Zrotation Yrotation Xrotation
						End Site
						{
							OFFSET 0.000000 0.000000 0.000000
						}
					}
				}
			}
		}
	}
	JOINT Spine_virtual
	{
		OFFSET 0.000000 0.000000 0.000000
		CHANNELS 3 Zrotation Yrotation Xrotation
		JOINT Spine
		{
			OFFSET 0.000000 6.876099 0.125700
			CHANNELS 3 Zrotation Yrotation Xrotation
			JOINT Spine1
			{
				OFFSET 0.000000 8.022060 0.146608
				CHANNELS 3 Zrotation Yrotation Xrotation
				JOINT Spine2
				{
					OFFSET 0.000000 9.168068 0.167552
					CHANNELS 3 Zrotation Yrotation Xrotation
					JOINT Neck_virtual
					{
						OFFSET 0.000000 0.000000 0.000000
						CHANNELS 3 Zrotation Yrotation Xrotation
						JOINT Neck
						{
							OFFSET 0.000000 10.314075 0.188496
							CHANNELS 3 Zrotation Yrotation Xrotation
							JOINT Head
							{
								OFFSET 0.000000 7.643700 -2.377400
								CHANNELS 3 Zrotation Yrotation Xrotation
								End Site
								{
									OFFSET 0.000000 0.000000 0.000000
								}
							}
						}
					}
					JOINT LeftShoulder_virtual
					{
						OFFSET 0.000000 0.000000 0.000000
						CHANNELS 3 Zrotation Yrotation Xrotation
						JOINT LeftShoulder
						{
							OFFSET 4.392200 8.824978 0.174984
							CHANNELS 3 Zrotation Yrotation Xrotation
							JOINT LeftArm
							{
								OFFSET 8.771219 -2.981674 -0.026999
								CHANNELS 3 Zrotation Yrotation Xrotation
								JOINT LeftForeArm
								{
									OFFSET 8.512804 0.000000 -0.000000
									CHANNELS 3 Zrotation Yrotation Xrotation
									JOINT LeftHand
									{
										OFFSET 18.484802 0.000000 -0.000000
										CHANNELS 3 Zrotation Yrotation Xrotation
										End Site
										{
											OFFSET 0.000000 0.000000 0.000000
										}
									}
								}
							}
						}
					}
					JOINT RightShoulder_virtual
					{
						OFFSET 0.000000 0.000000 0.000000
						CHANNELS 3 Zrotation Yrotation Xrotation
						JOINT RightShoulder
						{
							OFFSET -4.392200 8.824993 0.141379
							CHANNELS 3 Zrotation Yrotation Xrotation
							JOINT RightArm
							{
								OFFSET -8.771282 -2.981682 -0.094208
								CHANNELS 3 Zrotation Yrotation Xrotation
								JOINT RightForeArm
								{
									OFFSET -8.494598 0.000000 0.000000
									CHANNELS 3 Zrotation Yrotation Xrotation
									JOINT RightHand
									{
										OFFSET -18.483803 0.000000 0.000001
										CHANNELS 3 Zrotation Yrotation Xrotation
										End Site
										{
											OFFSET 0.000000 0.000000 0.000000
										}
									}
								}
							}
						}
					}
				}
			}
		}
	}
}
MOTION
Frames: 4
Frame Time: 0.033333
8.537798 34.913498 30.813951 -179.388389 7.925191 -179.952248 -4.358561 -3.380270 6.231267 -25.109394 -0.639004 -28.297508 13.920315 10.488440 22.867659 0.670669 -7.198085 13.404198 0.000000 0.000000 0.000000 1.180092 -1.281299 2.558689 17.577430 14.886126 -10.024254 -5.799529 6.656737 18.470087 3.936670 4.415103 -0.988261 0.000000 0.000000 0.000000 -0.912670 0.338101 -5.941115 2.632799 0.413893 -16.016565 0.412298 -3.239552 5.857773 -0.052464 -0.105509 -0.036719 -0.224518 -0.717975 8.898213 -0.539637 4.217094 26.526380 0.000000 0.000000 0.000000 1.422757 -0.499669 5.409672 2.177565 4.022835 1.672512 -16.871138 23.205540 6.485203 -164.089407 -82.208471 -175.710851 0.000000 0.000000 0.000000 -2.686501 0.838405 4.496181 10.031602 -2.025873 -2.261287 24.388464 -26.730966 -8.845874 178.186726 62.141976 172.457851 0.000000 0.000000 0.000000 
8.841105 34.920856 30.502329 -179.320469 8.002097 -179.896637 -4.476868 -3.274700 6.668931 -25.500028 -0.407194 -28.127189 14.203013 11.287556 22.726734 2.197958 -6.537933 12.549332 0.000000 0.000000 0.000000 1.369157 -1.321148 2.984005 17.835569 15.159374 -9.744374 -5.882918 6.321032 18.160804 4.047309 4.276205 -0.800386 0.000000 0.000000 0.000000 -0.917834 0.309914 -5.824112 2.366434 0.464626 -16.071188 0.476395 -3.224965 5.840959 -0.061023 -0.102115 -0.057648 -0.209893 -0.684779 8.989821 -0.818790 4.342636 26.344659 0.000000 0.000000 0.000000 1.397761 -0.436862 5.499086 2.260960 3.926606 1.626395 -17.956567 23.209620 6.555752 -164.562384 -82.392073 -175.182632 0.000000 0.000000 0.000000 -2.609391 0.907451 4.622914 9.463664 -1.881662 -2.475525 24.431631 -26.833710 -7.961466 178.066816 62.366601 172.292724 0.000000 0.000000 0.000000 
9.136555 34.952053 30.228189 -179.403566 8.052328 -179.856475 -4.237443 -3.212004 6.894189 -25.453304 -0.531709 -27.852651 14.471385 11.035363 23.010091 2.570993 -6.682075 11.849881 0.000000 0.000000 0.000000 1.508250 -1.269179 3.337974 17.929824 15.268490 -9.473963 -5.985283 5.970620 17.982502 4.144166 4.104224 -0.531872 0.000000 0.000000 0.000000 -0.961794 0.514120 -5.688812 2.017672 0.713350 -16.070440 0.486023 -3.331953 5.837654 -0.089366 -0.202940 -0.040061 -0.204194 -0.657683 9.038209 -1.144149 4.416604 26.129707 0.000000 0.000000 0.000000 1.413044 -0.393262 5.538662 2.239268 3.769023 1.497508 -19.374728 23.450307 6.509111 -164.874128 -82.636888 -174.858362 0.000000 0.000000 0.000000 -2.509095 0.953703 4.630616 8.803790 -1.724967 -2.420219 24.403559 -26.852195 -7.227092 178.318781 62.517432 172.532723 0.000000 0.000000 0.000000 
9.419676 34.989864 29.986147 -179.518463 8.091112 -179.989377 -4.057700 -3.124766 7.211495 -25.385443 -0.695873 -27.620295 14.821683 10.708432 23.481530 2.788452 -6.771935 11.050419 0.000000 0.000000 0.000000 1.789123 -1.205452 3.710801 18.053312 15.367687 -9.180693 -5.966564 5.432386 18.019076 4.330673 4.131152 -0.508704 0.000000 0.000000 0.000000 -1.010988 0.664845 -5.419826 1.728068 0.675900 -15.992063 0.530509 -3.181360 5.828892 -0.083481 -0.097679 -0.059879 -0.131823 -0.681446 9.028649 -1.421492 4.433342 25.874736 0.000000 0.000000 0.000000 1.449385 -0.537457 5.526215 2.237014 3.594101 1.411792 -21.054478 23.871776 6.427171 -165.099456 -82.941282 -174.711048 0.000000 0.000000 0.000000 -2.419844 0.887550 4.642264 8.096917 -1.633862 -2.434559 24.205069 -26.745201 -6.544911 178.389856 62.654404 172.605943 0.000000 0.000000 0.000000 
